<svg width="400" height="400" viewBox="0 0 400 400" xmlns="http://www.w3.org/2000/svg">
  <!-- Very dense Milky Way starfield with many clusters and sparse areas -->
  
  <!-- Dense Cluster 1: Top-left quadrant (20+ stars) -->
  <circle cx="30" cy="20" r="0.4" fill="white" opacity="0.5"/>
  <circle cx="45" cy="15" r="0.6" fill="white" opacity="0.7"/>
  <circle cx="20" cy="35" r="0.3" fill="white" opacity="0.4"/>
  <circle cx="60" cy="25" r="0.5" fill="white" opacity="0.6"/>
  <circle cx="35" cy="50" r="0.4" fill="white" opacity="0.5"/>
  <circle cx="75" cy="30" r="0.4" fill="white" opacity="0.5"/>
  <circle cx="25" cy="60" r="0.6" fill="white" opacity="0.7"/>
  <circle cx="70" cy="45" r="0.5" fill="white" opacity="0.6"/>
  <circle cx="15" cy="40" r="0.3" fill="white" opacity="0.4"/>
  <circle cx="85" cy="55" r="0.5" fill="white" opacity="0.6"/>
  <circle cx="50" cy="70" r="0.4" fill="white" opacity="0.5"/>
  <circle cx="40" cy="30" r="0.5" fill="white" opacity="0.6"/>
  <circle cx="65" cy="20" r="0.3" fill="white" opacity="0.4"/>
  <circle cx="55" cy="40" r="0.4" fill="white" opacity="0.5"/>
  <circle cx="80" cy="40" r="0.5" fill="white" opacity="0.6"/>
  <circle cx="30" cy="55" r="0.3" fill="white" opacity="0.4"/>
  <circle cx="90" cy="25" r="0.4" fill="white" opacity="0.5"/>
  <circle cx="45" cy="65" r="0.5" fill="white" opacity="0.6"/>
  <circle cx="75" cy="60" r="0.3" fill="white" opacity="0.4"/>
  <circle cx="20" cy="75" r="0.4" fill="white" opacity="0.5"/>
  <circle cx="60" cy="80" r="0.5" fill="white" opacity="0.6"/>
  
  <!-- Dense Cluster 2: Center-left (25+ stars) -->
  <circle cx="70" cy="110" r="0.6" fill="white" opacity="0.7"/>
  <circle cx="90" cy="100" r="0.8" fill="white" opacity="0.9"/>
  <circle cx="50" cy="120" r="0.5" fill="white" opacity="0.6"/>
  <circle cx="110" cy="90" r="0.4" fill="white" opacity="0.5"/>
  <circle cx="60" cy="140" r="0.7" fill="white" opacity="0.8"/>
  <circle cx="100" cy="130" r="0.5" fill="white" opacity="0.6"/>
  <circle cx="40" cy="130" r="0.4" fill="white" opacity="0.5"/>
  <circle cx="120" cy="115" r="0.6" fill="white" opacity="0.7"/>
  <circle cx="80" cy="150" r="0.5" fill="white" opacity="0.6"/>
  <circle cx="85" cy="125" r="0.4" fill="white" opacity="0.5"/>
  <circle cx="55" cy="105" r="0.5" fill="white" opacity="0.6"/>
  <circle cx="95" cy="110" r="0.4" fill="white" opacity="0.5"/>
  <circle cx="65" cy="125" r="0.6" fill="white" opacity="0.7"/>
  <circle cx="105" cy="140" r="0.3" fill="white" opacity="0.4"/>
  <circle cx="75" cy="135" r="0.5" fill="white" opacity="0.6"/>
  <circle cx="115" cy="125" r="0.4" fill="white" opacity="0.5"/>
  <circle cx="45" cy="150" r="0.5" fill="white" opacity="0.6"/>
  <circle cx="85" cy="160" r="0.4" fill="white" opacity="0.5"/>
  <circle cx="70" cy="170" r="0.6" fill="white" opacity="0.7"/>
  <circle cx="100" cy="155" r="0.3" fill="white" opacity="0.4"/>
  <circle cx="60" cy="160" r="0.5" fill="white" opacity="0.6"/>
  <circle cx="90" cy="175" r="0.4" fill="white" opacity="0.5"/>
  <circle cx="55" cy="180" r="0.3" fill="white" opacity="0.4"/>
  <circle cx="95" cy="165" r="0.5" fill="white" opacity="0.6"/>
  <circle cx="80" cy="185" r="0.4" fill="white" opacity="0.5"/>
  
  <!-- Dense Cluster 3: Center (30+ stars - main cluster) -->
  <circle cx="170" cy="90" r="0.9" fill="white" opacity="1.0"/>
  <circle cx="190" cy="80" r="0.7" fill="white" opacity="0.8"/>
  <circle cx="150" cy="100" r="0.6" fill="white" opacity="0.7"/>
  <circle cx="210" cy="90" r="0.8" fill="white" opacity="0.9"/>
  <circle cx="180" cy="110" r="0.5" fill="white" opacity="0.6"/>
  <circle cx="200" cy="105" r="0.6" fill="white" opacity="0.7"/>
  <circle cx="160" cy="120" r="0.5" fill="white" opacity="0.6"/>
  <circle cx="220" cy="100" r="0.4" fill="white" opacity="0.5"/>
  <circle cx="175" cy="95" r="0.4" fill="white" opacity="0.5"/>
  <circle cx="195" cy="85" r="0.5" fill="white" opacity="0.6"/>
  <circle cx="165" cy="100" r="0.6" fill="white" opacity="0.7"/>
  <circle cx="185" cy="100" r="0.4" fill="white" opacity="0.5"/>
  <circle cx="205" cy="95" r="0.5" fill="white" opacity="0.6"/>
  <circle cx="155" cy="110" r="0.4" fill="white" opacity="0.5"/>
  <circle cx="215" cy="110" r="0.6" fill="white" opacity="0.7"/>
  <circle cx="170" cy="115" r="0.3" fill="white" opacity="0.4"/>
  <circle cx="190" cy="115" r="0.5" fill="white" opacity="0.6"/>
  <circle cx="180" cy="125" r="0.4" fill="white" opacity="0.5"/>
  <circle cx="200" cy="120" r="0.3" fill="white" opacity="0.4"/>
  <circle cx="160" cy="130" r="0.5" fill="white" opacity="0.6"/>
  <circle cx="210" cy="125" r="0.4" fill="white" opacity="0.5"/>
  <circle cx="175" cy="135" r="0.3" fill="white" opacity="0.4"/>
  <circle cx="195" cy="130" r="0.5" fill="white" opacity="0.6"/>
  <circle cx="185" cy="140" r="0.4" fill="white" opacity="0.5"/>
  <circle cx="205" cy="135" r="0.3" fill="white" opacity="0.4"/>
  <circle cx="165" cy="140" r="0.4" fill="white" opacity="0.5"/>
  <circle cx="215" cy="140" r="0.5" fill="white" opacity="0.6"/>
  <circle cx="180" cy="150" r="0.3" fill="white" opacity="0.4"/>
  <circle cx="200" cy="145" r="0.4" fill="white" opacity="0.5"/>
  <circle cx="190" cy="155" r="0.3" fill="white" opacity="0.4"/>
  
  <!-- Dense Cluster 4: Center-right (35+ stars - nebula area, brightest) -->
  <circle cx="270" cy="70" r="1.0" fill="white" opacity="1.0"/>
  <circle cx="290" cy="60" r="0.8" fill="white" opacity="0.9"/>
  <circle cx="250" cy="80" r="0.7" fill="white" opacity="0.8"/>
  <circle cx="310" cy="75" r="0.9" fill="white" opacity="1.0"/>
  <circle cx="260" cy="90" r="0.6" fill="white" opacity="0.7"/>
  <circle cx="300" cy="85" r="0.7" fill="white" opacity="0.8"/>
  <circle cx="240" cy="100" r="0.5" fill="white" opacity="0.6"/>
  <circle cx="320" cy="90" r="0.6" fill="white" opacity="0.7"/>
  <circle cx="280" cy="95" r="0.5" fill="white" opacity="0.6"/>
  <circle cx="295" cy="65" r="0.4" fill="white" opacity="0.5"/>
  <circle cx="265" cy="75" r="0.6" fill="white" opacity="0.7"/>
  <circle cx="285" cy="85" r="0.5" fill="white" opacity="0.6"/>
  <circle cx="305" cy="70" r="0.4" fill="white" opacity="0.5"/>
  <circle cx="255" cy="85" r="0.5" fill="white" opacity="0.6"/>
  <circle cx="315" cy="80" r="0.6" fill="white" opacity="0.7"/>
  <circle cx="275" cy="100" r="0.4" fill="white" opacity="0.5"/>
  <circle cx="295" cy="95" r="0.5" fill="white" opacity="0.6"/>
  <circle cx="260" cy="110" r="0.3" fill="white" opacity="0.4"/>
  <circle cx="300" cy="105" r="0.4" fill="white" opacity="0.5"/>
  <circle cx="280" cy="115" r="0.5" fill="white" opacity="0.6"/>
  <circle cx="290" cy="110" r="0.3" fill="white" opacity="0.4"/>
  <circle cx="270" cy="120" r="0.4" fill="white" opacity="0.5"/>
  <circle cx="310" cy="100" r="0.5" fill="white" opacity="0.6"/>
  <circle cx="250" cy="120" r="0.4" fill="white" opacity="0.5"/>
  <circle cx="320" cy="110" r="0.3" fill="white" opacity="0.4"/>
  <circle cx="265" cy="130" r="0.4" fill="white" opacity="0.5"/>
  <circle cx="305" cy="125" r="0.5" fill="white" opacity="0.6"/>
  <circle cx="285" cy="135" r="0.3" fill="white" opacity="0.4"/>
  <circle cx="295" cy="130" r="0.4" fill="white" opacity="0.5"/>
  <circle cx="275" cy="140" r="0.3" fill="white" opacity="0.4"/>
  <circle cx="315" cy="135" r="0.4" fill="white" opacity="0.5"/>
  <circle cx="255" cy="140" r="0.3" fill="white" opacity="0.4"/>
  <circle cx="300" cy="140" r="0.4" fill="white" opacity="0.5"/>
  <circle cx="280" cy="150" r="0.3" fill="white" opacity="0.4"/>
  
  <!-- Dense Cluster 5: Right side (20+ stars) -->
  <circle cx="330" cy="40" r="0.7" fill="white" opacity="0.8"/>
  <circle cx="350" cy="30" r="0.6" fill="white" opacity="0.7"/>
  <circle cx="310" cy="50" r="0.5" fill="white" opacity="0.6"/>
  <circle cx="340" cy="60" r="0.8" fill="white" opacity="0.9"/>
  <circle cx="320" cy="70" r="0.5" fill="white" opacity="0.6"/>
  <circle cx="360" cy="45" r="0.4" fill="white" opacity="0.5"/>
  <circle cx="330" cy="80" r="0.6" fill="white" opacity="0.7"/>
  <circle cx="345" cy="55" r="0.5" fill="white" opacity="0.6"/>
  <circle cx="315" cy="65" r="0.4" fill="white" opacity="0.5"/>
  <circle cx="355" cy="50" r="0.5" fill="white" opacity="0.6"/>
  <circle cx="325" cy="90" r="0.4" fill="white" opacity="0.5"/>
  <circle cx="350" cy="75" r="0.5" fill="white" opacity="0.6"/>
  <circle cx="335" cy="100" r="0.3" fill="white" opacity="0.4"/>
  <circle cx="360" cy="85" r="0.4" fill="white" opacity="0.5"/>
  <circle cx="310" cy="95" r="0.4" fill="white" opacity="0.5"/>
  <circle cx="340" cy="110" r="0.3" fill="white" opacity="0.4"/>
  <circle cx="355" cy="100" r="0.4" fill="white" opacity="0.5"/>
  <circle cx="325" cy="115" r="0.3" fill="white" opacity="0.4"/>
  <circle cx="345" cy="120" r="0.4" fill="white" opacity="0.5"/>
  <circle cx="330" cy="130" r="0.3" fill="white" opacity="0.4"/>
  <circle cx="350" cy="125" r="0.4" fill="white" opacity="0.5"/>
  
  <!-- Dense Cluster 6: Bottom-left (25+ stars) -->
  <circle cx="60" cy="220" r="0.7" fill="white" opacity="0.8"/>
  <circle cx="80" cy="210" r="0.6" fill="white" opacity="0.7"/>
  <circle cx="40" cy="240" r="0.5" fill="white" opacity="0.6"/>
  <circle cx="100" cy="200" r="0.8" fill="white" opacity="0.9"/>
  <circle cx="70" cy="230" r="0.4" fill="white" opacity="0.5"/>
  <circle cx="90" cy="220" r="0.6" fill="white" opacity="0.7"/>
  <circle cx="50" cy="250" r="0.5" fill="white" opacity="0.6"/>
  <circle cx="110" cy="240" r="0.4" fill="white" opacity="0.5"/>
  <circle cx="65" cy="260" r="0.6" fill="white" opacity="0.7"/>
  <circle cx="95" cy="250" r="0.4" fill="white" opacity="0.5"/>
  <circle cx="45" cy="270" r="0.5" fill="white" opacity="0.6"/>
  <circle cx="105" cy="260" r="0.4" fill="white" opacity="0.5"/>
  <circle cx="75" cy="280" r="0.6" fill="white" opacity="0.7"/>
  <circle cx="85" cy="270" r="0.3" fill="white" opacity="0.4"/>
  <circle cx="55" cy="290" r="0.4" fill="white" opacity="0.5"/>
  <circle cx="95" cy="280" r="0.5" fill="white" opacity="0.6"/>
  <circle cx="65" cy="300" r="0.3" fill="white" opacity="0.4"/>
  <circle cx="85" cy="290" r="0.4" fill="white" opacity="0.5"/>
  <circle cx="75" cy="310" r="0.3" fill="white" opacity="0.4"/>
  <circle cx="95" cy="300" r="0.4" fill="white" opacity="0.5"/>
  <circle cx="60" cy="320" r="0.3" fill="white" opacity="0.4"/>
  <circle cx="90" cy="310" r="0.4" fill="white" opacity="0.5"/>
  <circle cx="70" cy="330" r="0.3" fill="white" opacity="0.4"/>
  <circle cx="100" cy="320" r="0.4" fill="white" opacity="0.5"/>
  <circle cx="80" cy="340" r="0.3" fill="white" opacity="0.4"/>
  
  <!-- Dense Cluster 7: Bottom-center (25+ stars) -->
  <circle cx="180" cy="220" r="0.8" fill="white" opacity="0.9"/>
  <circle cx="200" cy="200" r="0.6" fill="white" opacity="0.7"/>
  <circle cx="160" cy="240" r="0.7" fill="white" opacity="0.8"/>
  <circle cx="220" cy="210" r="0.5" fill="white" opacity="0.6"/>
  <circle cx="190" cy="230" r="0.6" fill="white" opacity="0.7"/>
  <circle cx="170" cy="260" r="0.5" fill="white" opacity="0.6"/>
  <circle cx="210" cy="240" r="0.4" fill="white" opacity="0.5"/>
  <circle cx="185" cy="250" r="0.6" fill="white" opacity="0.7"/>
  <circle cx="205" cy="230" r="0.3" fill="white" opacity="0.4"/>
  <circle cx="175" cy="270" r="0.5" fill="white" opacity="0.6"/>
  <circle cx="215" cy="250" r="0.4" fill="white" opacity="0.5"/>
  <circle cx="195" cy="260" r="0.3" fill="white" opacity="0.4"/>
  <circle cx="165" cy="280" r="0.4" fill="white" opacity="0.5"/>
  <circle cx="225" cy="260" r="0.5" fill="white" opacity="0.6"/>
  <circle cx="180" cy="280" r="0.3" fill="white" opacity="0.4"/>
  <circle cx="200" cy="270" r="0.4" fill="white" opacity="0.5"/>
  <circle cx="190" cy="290" r="0.3" fill="white" opacity="0.4"/>
  <circle cx="210" cy="280" r="0.4" fill="white" opacity="0.5"/>
  <circle cx="170" cy="300" r="0.3" fill="white" opacity="0.4"/>
  <circle cx="220" cy="290" r="0.4" fill="white" opacity="0.5"/>
  <circle cx="185" cy="310" r="0.3" fill="white" opacity="0.4"/>
  <circle cx="205" cy="300" r="0.4" fill="white" opacity="0.5"/>
  <circle cx="175" cy="320" r="0.3" fill="white" opacity="0.4"/>
  <circle cx="215" cy="310" r="0.4" fill="white" opacity="0.5"/>
  <circle cx="195" cy="330" r="0.3" fill="white" opacity="0.4"/>
  
  <!-- Dense Cluster 8: Bottom-right (25+ stars) -->
  <circle cx="290" cy="220" r="0.7" fill="white" opacity="0.8"/>
  <circle cx="310" cy="200" r="0.6" fill="white" opacity="0.7"/>
  <circle cx="270" cy="240" r="0.8" fill="white" opacity="0.9"/>
  <circle cx="330" cy="210" r="0.5" fill="white" opacity="0.6"/>
  <circle cx="300" cy="230" r="0.6" fill="white" opacity="0.7"/>
  <circle cx="280" cy="260" r="0.5" fill="white" opacity="0.6"/>
  <circle cx="320" cy="240" r="0.4" fill="white" opacity="0.5"/>
  <circle cx="295" cy="250" r="0.6" fill="white" opacity="0.7"/>
  <circle cx="315" cy="230" r="0.3" fill="white" opacity="0.4"/>
  <circle cx="275" cy="270" r="0.5" fill="white" opacity="0.6"/>
  <circle cx="325" cy="250" r="0.4" fill="white" opacity="0.5"/>
  <circle cx="305" cy="260" r="0.3" fill="white" opacity="0.4"/>
  <circle cx="265" cy="280" r="0.4" fill="white" opacity="0.5"/>
  <circle cx="335" cy="260" r="0.5" fill="white" opacity="0.6"/>
  <circle cx="290" cy="280" r="0.3" fill="white" opacity="0.4"/>
  <circle cx="310" cy="270" r="0.4" fill="white" opacity="0.5"/>
  <circle cx="300" cy="290" r="0.3" fill="white" opacity="0.4"/>
  <circle cx="320" cy="280" r="0.4" fill="white" opacity="0.5"/>
  <circle cx="270" cy="300" r="0.3" fill="white" opacity="0.4"/>
  <circle cx="330" cy="290" r="0.4" fill="white" opacity="0.5"/>
  <circle cx="295" cy="310" r="0.3" fill="white" opacity="0.4"/>
  <circle cx="315" cy="300" r="0.4" fill="white" opacity="0.5"/>
  <circle cx="285" cy="320" r="0.3" fill="white" opacity="0.4"/>
  <circle cx="325" cy="310" r="0.4" fill="white" opacity="0.5"/>
  <circle cx="305" cy="330" r="0.3" fill="white" opacity="0.4"/>
  
  <!-- Sparse stars: scattered between clusters (40+ stars for Milky Way effect) -->
  <circle cx="120" cy="50" r="0.3" fill="white" opacity="0.4"/>
  <circle cx="130" cy="30" r="0.4" fill="white" opacity="0.5"/>
  <circle cx="140" cy="70" r="0.3" fill="white" opacity="0.4"/>
  <circle cx="230" cy="40" r="0.4" fill="white" opacity="0.5"/>
  <circle cx="240" cy="60" r="0.3" fill="white" opacity="0.4"/>
  <circle cx="120" cy="160" r="0.3" fill="white" opacity="0.4"/>
  <circle cx="130" cy="180" r="0.4" fill="white" opacity="0.5"/>
  <circle cx="140" cy="200" r="0.3" fill="white" opacity="0.4"/>
  <circle cx="230" cy="150" r="0.4" fill="white" opacity="0.5"/>
  <circle cx="240" cy="170" r="0.3" fill="white" opacity="0.4"/>
  <circle cx="150" cy="160" r="0.3" fill="white" opacity="0.4"/>
  <circle cx="250" cy="150" r="0.4" fill="white" opacity="0.5"/>
  <circle cx="140" cy="240" r="0.3" fill="white" opacity="0.4"/>
  <circle cx="240" cy="220" r="0.4" fill="white" opacity="0.5"/>
  <circle cx="150" cy="260" r="0.3" fill="white" opacity="0.4"/>
  <circle cx="250" cy="240" r="0.4" fill="white" opacity="0.5"/>
  <circle cx="360" cy="150" r="0.3" fill="white" opacity="0.4"/>
  <circle cx="370" cy="170" r="0.4" fill="white" opacity="0.5"/>
  <circle cx="380" cy="200" r="0.3" fill="white" opacity="0.4"/>
  <circle cx="10" cy="180" r="0.4" fill="white" opacity="0.5"/>
  <circle cx="20" cy="220" r="0.3" fill="white" opacity="0.4"/>
  <circle cx="15" cy="260" r="0.4" fill="white" opacity="0.5"/>
  <circle cx="25" cy="300" r="0.3" fill="white" opacity="0.4"/>
  <circle cx="150" cy="320" r="0.3" fill="white" opacity="0.4"/>
  <circle cx="250" cy="300" r="0.4" fill="white" opacity="0.5"/>
  <circle cx="270" cy="320" r="0.3" fill="white" opacity="0.4"/>
  <circle cx="360" cy="240" r="0.3" fill="white" opacity="0.4"/>
  <circle cx="50" cy="340" r="0.4" fill="white" opacity="0.5"/>
  <circle cx="330" cy="340" r="0.3" fill="white" opacity="0.4"/>
  <circle cx="120" cy="360" r="0.4" fill="white" opacity="0.5"/>
  <circle cx="240" cy="360" r="0.3" fill="white" opacity="0.4"/>
  <circle cx="350" cy="360" r="0.4" fill="white" opacity="0.5"/>
  <circle cx="380" cy="120" r="0.3" fill="white" opacity="0.4"/>
  <circle cx="390" cy="280" r="0.4" fill="white" opacity="0.5"/>
  <circle cx="5" cy="100" r="0.3" fill="white" opacity="0.4"/>
  <circle cx="395" cy="100" r="0.4" fill="white" opacity="0.5"/>
  <circle cx="5" cy="300" r="0.3" fill="white" opacity="0.4"/>
  <circle cx="395" cy="300" r="0.4" fill="white" opacity="0.5"/>
  <circle cx="130" cy="80" r="0.3" fill="white" opacity="0.4"/>
  <circle cx="230" cy="80" r="0.4" fill="white" opacity="0.5"/>
  <circle cx="140" cy="120" r="0.3" fill="white" opacity="0.4"/>
  <circle cx="240" cy="120" r="0.4" fill="white" opacity="0.5"/>
</svg>
