<svg width="400" height="400" viewBox="0 0 400 400" xmlns="http://www.w3.org/2000/svg">
  <!-- Dense Milky Way starfield with clear clusters and sparse areas -->
  
  <!-- Dense Cluster 1: Top-left quadrant -->
  <circle cx="45" cy="35" r="0.5" fill="white" opacity="0.6"/>
  <circle cx="60" cy="25" r="0.7" fill="white" opacity="0.8"/>
  <circle cx="30" cy="50" r="0.4" fill="white" opacity="0.5"/>
  <circle cx="75" cy="40" r="0.6" fill="white" opacity="0.7"/>
  <circle cx="50" cy="60" r="0.5" fill="white" opacity="0.6"/>
  <circle cx="85" cy="30" r="0.4" fill="white" opacity="0.5"/>
  <circle cx="40" cy="75" r="0.6" fill="white" opacity="0.7"/>
  <circle cx="70" cy="55" r="0.5" fill="white" opacity="0.6"/>
  <circle cx="25" cy="40" r="0.4" fill="white" opacity="0.5"/>
  <circle cx="90" cy="65" r="0.5" fill="white" opacity="0.6"/>
  
  <!-- Dense Cluster 2: Center-left -->
  <circle cx="80" cy="120" r="0.6" fill="white" opacity="0.7"/>
  <circle cx="100" cy="110" r="0.8" fill="white" opacity="0.9"/>
  <circle cx="60" cy="130" r="0.5" fill="white" opacity="0.6"/>
  <circle cx="120" cy="100" r="0.4" fill="white" opacity="0.5"/>
  <circle cx="70" cy="150" r="0.7" fill="white" opacity="0.8"/>
  <circle cx="110" cy="140" r="0.5" fill="white" opacity="0.6"/>
  <circle cx="50" cy="140" r="0.4" fill="white" opacity="0.5"/>
  <circle cx="130" cy="125" r="0.6" fill="white" opacity="0.7"/>
  <circle cx="90" cy="160" r="0.5" fill="white" opacity="0.6"/>
  <circle cx="95" cy="135" r="0.4" fill="white" opacity="0.5"/>
  
  <!-- Dense Cluster 3: Center (main cluster) -->
  <circle cx="180" cy="100" r="0.9" fill="white" opacity="1.0"/>
  <circle cx="200" cy="90" r="0.7" fill="white" opacity="0.8"/>
  <circle cx="160" cy="110" r="0.6" fill="white" opacity="0.7"/>
  <circle cx="220" cy="100" r="0.8" fill="white" opacity="0.9"/>
  <circle cx="190" cy="120" r="0.5" fill="white" opacity="0.6"/>
  <circle cx="210" cy="115" r="0.6" fill="white" opacity="0.7"/>
  <circle cx="170" cy="130" r="0.5" fill="white" opacity="0.6"/>
  <circle cx="230" cy="110" r="0.4" fill="white" opacity="0.5"/>
  <circle cx="185" cy="105" r="0.4" fill="white" opacity="0.5"/>
  <circle cx="205" cy="95" r="0.5" fill="white" opacity="0.6"/>
  <circle cx="175" cy="100" r="0.6" fill="white" opacity="0.7"/>
  <circle cx="195" cy="110" r="0.4" fill="white" opacity="0.5"/>
  
  <!-- Dense Cluster 4: Center-right (nebula area - brightest) -->
  <circle cx="280" cy="80" r="1.0" fill="white" opacity="1.0"/>
  <circle cx="300" cy="70" r="0.8" fill="white" opacity="0.9"/>
  <circle cx="260" cy="90" r="0.7" fill="white" opacity="0.8"/>
  <circle cx="320" cy="85" r="0.9" fill="white" opacity="1.0"/>
  <circle cx="270" cy="100" r="0.6" fill="white" opacity="0.7"/>
  <circle cx="310" cy="95" r="0.7" fill="white" opacity="0.8"/>
  <circle cx="250" cy="110" r="0.5" fill="white" opacity="0.6"/>
  <circle cx="330" cy="100" r="0.6" fill="white" opacity="0.7"/>
  <circle cx="290" cy="105" r="0.5" fill="white" opacity="0.6"/>
  <circle cx="305" cy="75" r="0.4" fill="white" opacity="0.5"/>
  <circle cx="275" cy="85" r="0.6" fill="white" opacity="0.7"/>
  <circle cx="295" cy="90" r="0.5" fill="white" opacity="0.6"/>
  <circle cx="315" cy="80" r="0.4" fill="white" opacity="0.5"/>
  
  <!-- Dense Cluster 5: Right side -->
  <circle cx="340" cy="50" r="0.7" fill="white" opacity="0.8"/>
  <circle cx="360" cy="40" r="0.6" fill="white" opacity="0.7"/>
  <circle cx="320" cy="60" r="0.5" fill="white" opacity="0.6"/>
  <circle cx="350" cy="70" r="0.8" fill="white" opacity="0.9"/>
  <circle cx="330" cy="80" r="0.5" fill="white" opacity="0.6"/>
  <circle cx="370" cy="55" r="0.4" fill="white" opacity="0.5"/>
  <circle cx="340" cy="90" r="0.6" fill="white" opacity="0.7"/>
  <circle cx="355" cy="65" r="0.5" fill="white" opacity="0.6"/>
  
  <!-- Dense Cluster 6: Bottom-left -->
  <circle cx="70" cy="240" r="0.7" fill="white" opacity="0.8"/>
  <circle cx="90" cy="220" r="0.6" fill="white" opacity="0.7"/>
  <circle cx="50" cy="260" r="0.5" fill="white" opacity="0.6"/>
  <circle cx="110" cy="230" r="0.8" fill="white" opacity="0.9"/>
  <circle cx="80" cy="250" r="0.4" fill="white" opacity="0.5"/>
  <circle cx="100" cy="240" r="0.6" fill="white" opacity="0.7"/>
  <circle cx="60" cy="280" r="0.5" fill="white" opacity="0.6"/>
  <circle cx="120" cy="250" r="0.4" fill="white" opacity="0.5"/>
  <circle cx="85" cy="270" r="0.6" fill="white" opacity="0.7"/>
  
  <!-- Dense Cluster 7: Bottom-center -->
  <circle cx="190" cy="240" r="0.8" fill="white" opacity="0.9"/>
  <circle cx="210" cy="220" r="0.6" fill="white" opacity="0.7"/>
  <circle cx="170" cy="260" r="0.7" fill="white" opacity="0.8"/>
  <circle cx="230" cy="230" r="0.5" fill="white" opacity="0.6"/>
  <circle cx="200" cy="250" r="0.6" fill="white" opacity="0.7"/>
  <circle cx="180" cy="280" r="0.5" fill="white" opacity="0.6"/>
  <circle cx="220" cy="240" r="0.4" fill="white" opacity="0.5"/>
  <circle cx="195" cy="260" r="0.6" fill="white" opacity="0.7"/>
  
  <!-- Dense Cluster 8: Bottom-right -->
  <circle cx="300" cy="240" r="0.7" fill="white" opacity="0.8"/>
  <circle cx="320" cy="220" r="0.6" fill="white" opacity="0.7"/>
  <circle cx="280" cy="260" r="0.8" fill="white" opacity="0.9"/>
  <circle cx="340" cy="230" r="0.5" fill="white" opacity="0.6"/>
  <circle cx="310" cy="250" r="0.6" fill="white" opacity="0.7"/>
  <circle cx="290" cy="280" r="0.5" fill="white" opacity="0.6"/>
  <circle cx="330" cy="240" r="0.4" fill="white" opacity="0.5"/>
  <circle cx="305" cy="260" r="0.6" fill="white" opacity="0.7"/>
  
  <!-- Sparse stars: scattered between clusters (Milky Way effect) -->
  <circle cx="140" cy="60" r="0.3" fill="white" opacity="0.4"/>
  <circle cx="150" cy="40" r="0.4" fill="white" opacity="0.5"/>
  <circle cx="130" cy="80" r="0.3" fill="white" opacity="0.4"/>
  <circle cx="240" cy="50" r="0.4" fill="white" opacity="0.5"/>
  <circle cx="140" cy="180" r="0.3" fill="white" opacity="0.4"/>
  <circle cx="240" cy="160" r="0.4" fill="white" opacity="0.5"/>
  <circle cx="160" cy="200" r="0.3" fill="white" opacity="0.4"/>
  <circle cx="250" cy="200" r="0.4" fill="white" opacity="0.5"/>
  <circle cx="140" cy="300" r="0.3" fill="white" opacity="0.4"/>
  <circle cx="240" cy="300" r="0.4" fill="white" opacity="0.5"/>
  <circle cx="360" cy="200" r="0.3" fill="white" opacity="0.4"/>
  <circle cx="380" cy="250" r="0.4" fill="white" opacity="0.5"/>
  <circle cx="15" cy="200" r="0.3" fill="white" opacity="0.4"/>
  <circle cx="25" cy="300" r="0.4" fill="white" opacity="0.5"/>
  <circle cx="150" cy="320" r="0.3" fill="white" opacity="0.4"/>
  <circle cx="270" cy="320" r="0.4" fill="white" opacity="0.5"/>
  <circle cx="360" cy="280" r="0.3" fill="white" opacity="0.4"/>
  <circle cx="50" cy="320" r="0.4" fill="white" opacity="0.5"/>
  <circle cx="330" cy="320" r="0.3" fill="white" opacity="0.4"/>
  <circle cx="120" cy="350" r="0.4" fill="white" opacity="0.5"/>
  <circle cx="240" cy="350" r="0.3" fill="white" opacity="0.4"/>
  <circle cx="350" cy="350" r="0.4" fill="white" opacity="0.5"/>
  <circle cx="380" cy="180" r="0.3" fill="white" opacity="0.4"/>
  <circle cx="20" cy="120" r="0.4" fill="white" opacity="0.5"/>
  <circle cx="380" cy="120" r="0.3" fill="white" opacity="0.4"/>
</svg>
