<svg width="400" height="400" viewBox="0 0 400 400" xmlns="http://www.w3.org/2000/svg">
  <!-- Sparse, uneven star field - Milky Way style (larger, more visible) -->
  <circle cx="40" cy="60" r="1.2" fill="white" opacity="0.9"/>
  <circle cx="120" cy="90" r="0.8" fill="white" opacity="0.7"/>
  <circle cx="200" cy="50" r="1.5" fill="white" opacity="0.95"/>
  <circle cx="300" cy="140" r="0.6" fill="white" opacity="0.6"/>
  <circle cx="260" cy="260" r="1.0" fill="white" opacity="0.8"/>
  <circle cx="90" cy="300" r="0.8" fill="white" opacity="0.7"/>
  <circle cx="340" cy="320" r="1.3" fill="white" opacity="0.9"/>
  <circle cx="150" cy="180" r="1.0" fill="white" opacity="0.75"/>
  <circle cx="280" cy="80" r="0.8" fill="white" opacity="0.65"/>
  <circle cx="50" cy="250" r="1.2" fill="white" opacity="0.85"/>
  <circle cx="220" cy="310" r="0.6" fill="white" opacity="0.6"/>
  <circle cx="360" cy="200" r="1.0" fill="white" opacity="0.8"/>
  <circle cx="110" cy="140" r="0.8" fill="white" opacity="0.7"/>
  <circle cx="320" cy="280" r="1.2" fill="white" opacity="0.9"/>
  <circle cx="70" cy="220" r="0.8" fill="white" opacity="0.65"/>
  <circle cx="240" cy="120" r="1.0" fill="white" opacity="0.75"/>
  <circle cx="180" cy="350" r="0.6" fill="white" opacity="0.6"/>
  <circle cx="380" cy="100" r="0.8" fill="white" opacity="0.7"/>
  <circle cx="30" cy="150" r="1.0" fill="white" opacity="0.8"/>
  <circle cx="290" cy="240" r="0.8" fill="white" opacity="0.7"/>
  <circle cx="160" cy="40" r="0.7" fill="white" opacity="0.65"/>
  <circle cx="370" cy="180" r="0.9" fill="white" opacity="0.75"/>
  <circle cx="20" cy="280" r="0.8" fill="white" opacity="0.7"/>
  <circle cx="330" cy="60" r="1.1" fill="white" opacity="0.85"/>
  <circle cx="100" cy="200" r="0.7" fill="white" opacity="0.65"/>
</svg>
